<svg xmlns="http://www.w3.org/2000/svg" viewBox="0 0 92 92"><g><path class="logo-color" d="M91,1v90H1V1H91 M92,0H0v92h92V0z"></path><path class="logo-color" d="M14.4,56l-1.1-2.5H9.7l0,0.1c-0.3,0.7-0.7,1.6-1,2.3H7.3l2.9-6.3c0.5-1,0.8-1.8,1.1-2.5l0.3-0.1l2.9,6.3c0.3,0.8,0.8,1.8,1.2,2.5L14.4,56z M12.9,52.5l-1.4-3.1l-1.3,3.1L12.9,52.5z"></path><path class="logo-color" d="M23.6,56l-2.2-3.5h-1.3v1.6c0,0.5,0,1.4,0,1.8h-1.4c0.1-0.6,0.1-2.2,0.1-3v-2.7c0-0.8,0-2.4-0.1-3 c0.4,0,1.7,0,2.3-0.1c2.2,0,3.3,1.2,3.3,2.5c0,1.1-0.7,2.1-1.8,2.5l1.3,1.8c0.3,0.5,1,1.4,1.3,1.8L23.6,56z M20.1,51.5h1.2 c0.9,0.1,1.7-0.6,1.7-1.5c0-0.1,0-0.1,0-0.2c0-1.1-0.6-1.6-1.9-1.6c-0.4,0-0.7,0-1.1,0c0,0.2,0,0.5,0,0.7L20.1,51.5z"></path><path class="logo-color" d="M34.2,48.3c-0.9,0-1.8,0-2.9,0c0,0.3,0,0.6,0,0.8v5.1c0,0.5,0,1.4,0,1.8h-1.4c0.1-0.6,0.1-2.2,0.1-3v-2.7c0-0.5,0-1.3,0-2c-1.1,0-2,0-2.9,0c0-0.4,0.1-0.7,0-1.1c1.1,0,2.2,0.1,3.5,0.1c1.3,0,2.5,0,3.6-0.1C34.3,47.6,34.2,47.9,34.2,48.3"></path><path class="logo-color" d="M8.7,69.8c0.1-0.6,0.1-2.1,0.1-2.9v-2.7c0-0.8,0-2.4-0.1-2.9c0.5,0,0.9,0,1.4-0.1c0,0.4,0,1.3,0,1.8V68c0,0.5,0,1.4,0,1.8H8.7z"></path><path class="logo-color" d="M21.7,63l-0.1,5.1c0,0.5,0,1.5,0,1.8L21.3,70l-5.6-6.4V68c0,0.5,0,1.4,0,1.8h-1.3c0.1-0.6,0.1-2.1,0.1-2.9l0-2.9c0-0.8,0-2.2,0-2.8l0.3-0.1l5.7,6.5v-3.4c0-0.8,0-2.4-0.1-2.9c0.5,0,0.9,0,1.3-0.1C21.7,61.5,21.7,62.5,21.7,63"></path><path class="logo-color" d="M27.6,70c-0.9,0-1.7-0.3-2.4-0.7l0.1-1.3c0.7,0.6,1.5,0.9,2.4,0.9c0.9,0,1.6-0.5,1.6-1.4c0-1.7-3.7-1.8-3.7-4 c0-1.4,1.2-2.5,2.6-2.5c0,0,0.1,0,0.1,0c0.7,0,1.4,0.2,2,0.6l-0.4,1.1c-0.5-0.4-1.1-0.6-1.7-0.6c-0.9,0-1.4,0.5-1.4,1.2 c0,1.5,3.7,1.6,3.7,4c0,1.4-1.2,2.6-2.6,2.6C27.8,70,27.7,70,27.6,70"></path><path class="logo-color" d="M40.2,62.2c-0.9,0-1.8,0-2.9,0c0,0.3,0,0.6,0,0.8v5c0,0.5,0,1.4,0,1.8H36c0.1-0.6,0.1-2.1,0.1-2.9v-2.6 c0-0.5,0-1.3,0-2c-1.1,0-2,0-2.9,0c0-0.4,0.1-0.7,0-1.1c1.1,0,2.2,0.1,3.5,0.1s2.5,0,3.6-0.1C40.3,61.5,40.2,61.9,40.2,62.2"></path><path class="logo-color" d="M43.6,69.8c0.1-0.6,0.1-2.1,0.1-2.9v-2.7c0-0.8,0-2.4-0.1-2.9c0.5,0,0.9,0,1.4-0.1c0,0.4,0,1.3,0,1.8V68 c0,0.5,0,1.4,0,1.8H43.6z"></path><path class="logo-color" d="M55.1,62.2c-0.9,0-1.8,0-2.9,0c0,0.3,0,0.6,0,0.8v5c0,0.5,0,1.4,0,1.8h-1.4c0.1-0.6,0.1-2.1,0.1-2.9v-2.6 c0-0.5,0-1.3,0-2c-1.1,0-2,0-2.9,0c0-0.4,0.1-0.7,0-1.1c1.1,0,2.2,0.1,3.5,0.1s2.5,0,3.6-0.1C55.1,61.5,55.1,61.9,55.1,62.2"></path><path class="logo-color" d="M65.9,61.2l-2.7,6.2c-0.5,1-0.7,1.7-1,2.4L61.9,70l-2.7-6.3C58.8,63,58.3,62,58,61.2l1.3-0.1l2.7,6.4l1.7-4c0.3-0.7,0.6-1.6,0.9-2.3L65.9,61.2z"></path><path class="logo-color" d="M75.2,62.2c-0.9,0-1.8,0-2.9,0c0,0.3,0,0.6,0,0.8v5c0,0.5,0,1.4,0.1,1.8H71c0.1-0.6,0.1-2.1,0.1-2.9v-2.6c0-0.5,0-1.3,0-2c-1.1,0-1.9,0-2.9,0c0-0.4,0.1-0.7,0-1.1c1.1,0,2.2,0.1,3.5,0.1s2.5,0,3.6-0.1C75.2,61.5,75.2,61.9,75.2,62.2"></path><path class="logo-color" d="M83.8,69.8c-0.7,0-1.6-0.1-2.5-0.1s-1.8,0-2.5,0.1c0.1-0.6,0.1-2.2,0.1-2.9v-2.8c0-0.8,0-2.4-0.1-2.9c0.7,0,1.6,0.1,2.4,0.1s1.7,0,2.4-0.1c-0.1,0.4-0.1,0.7-0.1,1.1c-0.7,0-1.5,0-2.3,0c-0.4,0-0.7,0-1.1,0c0,0.2,0,0.5,0,0.7v1.8h3c0,0.3,0,0.6,0,1h-2.9V68c0,0.2,0,0.5,0,0.7c0.4,0,0.7,0,1.1,0c1,0,1.9,0,2.7,0C83.9,69.1,83.8,69.5,83.8,69.8"></path><path class="logo-color" d="M15,83.2c-0.8,0.6-1.8,1-2.8,1c-2.3,0-4.3-1.9-4.3-4.2c0,0,0-0.1,0-0.1c-0.1-2.5,1.8-4.6,4.4-4.7c0.1,0,0.1,0,0.2,0c0.9,0,1.8,0.3,2.6,0.8L14.7,77c-0.7-0.5-1.5-0.8-2.3-0.8c-1.8,0-3.2,1.4-3.2,3.2c0,0.1,0,0.1,0,0.2c0,2.2,1.4,3.5,3.1,3.5c1.1,0,2.1-0.5,2.8-1.2L15,83.2z"></path><path class="logo-color" d="M24.4,83.9c0.1-0.6,0.1-2.2,0.1-3v-1H20v2.2c0,0.5,0,1.4,0,1.8h-1.4c0.1-0.6,0.1-2.2,0.1-3v-2.7c0-0.8,0-2.4-0.1-3c0.5,0,0.9,0,1.4-0.1c0,0.4,0,1.3,0,1.8v1.9h4.5v-0.7c0-0.8,0-2.4-0.1-3c0.5,0,0.9,0,1.4-0.1c0,0.4-0.1,1.3-0.1,1.8v5.1c0,0.5,0,1.4,0.1,1.8L24.4,83.9z"></path><path class="logo-color" d="M30.2,83.9c0.1-0.6,0.1-2.2,0.1-3v-2.7c0-0.8,0-2.4-0.1-3c0.5,0,0.9,0,1.4-0.1c0,0.4,0,1.3,0,1.8v5.1c0,0.5,0,1.4,0,1.8L30.2,83.9z"></path><path class="logo-color" d="M42.3,83.2c-0.8,0.6-1.8,1-2.8,1c-2.3,0-4.3-1.9-4.3-4.2c0,0,0-0.1,0-0.1c-0.1-2.5,1.8-4.6,4.4-4.7 c0.1,0,0.1,0,0.2,0c0.9,0,1.8,0.3,2.5,0.8L42,77c-0.7-0.5-1.5-0.8-2.3-0.8c-1.8,0-3.2,1.4-3.2,3.2c0,0.1,0,0.1,0,0.2 c0,2.2,1.4,3.5,3.1,3.5c1.1,0,2.1-0.5,2.8-1.2L42.3,83.2z"></path><path class="logo-color" d="M52,84l-1.1-2.5h-3.6l0,0.1c-0.3,0.7-0.7,1.6-1,2.3h-1.3l2.9-6.3c0.5-1,0.8-1.8,1.1-2.5l0.3-0.1l2.9,6.3 c0.3,0.8,0.8,1.8,1.2,2.5L52,84z M50.4,80.5L49,77.4l-1.3,3.1L50.4,80.5z"></path><path class="logo-color" d="M61.9,79.9c0.5,0,0.7,0,1.3,0c-0.1,0.5,0,1.7,0,2.5v0.9c-0.9,0.6-2,0.9-3.1,0.9c-2.4,0-4.4-1.9-4.4-4.3 c-0.1-2.5,1.9-4.7,4.5-4.7c0.1,0,0.1,0,0.2,0c1,0,1.9,0.3,2.7,0.8L62.7,77c-0.7-0.5-1.6-0.8-2.5-0.8c-1.8-0.1-3.3,1.3-3.3,3.1 c0,0.1,0,0.2,0,0.3c-0.2,1.7,1.1,3.3,2.9,3.4c0.1,0,0.3,0,0.4,0c0.6,0,1.2-0.1,1.8-0.4v-1.5c0-0.2,0-0.5,0-0.7L61.9,79.9z"></path><path class="logo-color" d="M75.1,79.4c0.2,2.5-1.7,4.6-4.2,4.7c-0.1,0-0.2,0-0.2,0c-2.3,0-4.2-1.8-4.2-4.1c0-0.1,0-0.1,0-0.2 c-0.2-2.5,1.7-4.6,4.2-4.7c0.1,0,0.2,0,0.3,0c2.3,0,4.2,1.8,4.2,4.1C75.1,79.3,75.1,79.4,75.1,79.4 M73.8,79.6 c0-2.2-1.3-3.5-3.1-3.5c-1.8,0-3,1.6-3,3.5c0,2.2,1.3,3.5,3.1,3.5C72.6,83.1,73.8,81.5,73.8,79.6"></path></g></svg>